<?xml version="1.0" standalone="no"?><!DOCTYPE svg PUBLIC "-//W3C//DTD SVG 1.1//EN" "http://www.w3.org/Graphics/SVG/1.1/DTD/svg11.dtd"><svg t="1595139663288" class="icon" viewBox="0 0 1280 1024" version="1.1" xmlns="http://www.w3.org/2000/svg" p-id="9283" xmlns:xlink="http://www.w3.org/1999/xlink" width="40" height="32"><defs><style type="text/css"></style></defs><path d="M256 256c70.6 0 128-57.4 128-128S326.6 0 256 0 128 57.4 128 128s57.4 128 128 128z m768 0c70.6 0 128-57.4 128-128S1094.6 0 1024 0s-128 57.4-128 128 57.4 128 128 128z m254.6 453l-91.2-371.6c-6.6-27-31-46-59.6-48.4-30 19.4-65.6 31-104 31-38.4 0-74-11.6-104-31-28.6 2.4-53 21.4-59.6 48.4l-91.2 371.6C762 739.2 786 768 818.4 768H928v208c0 26.6 21.4 48 48 48h96c26.6 0 48-21.4 48-48V768h109.6c32.4 0 56.4-28.8 49-59zM672 0h-64c-17.6 0-32 14.4-32 32v960c0 17.6 14.4 32 32 32h64c17.6 0 32-14.4 32-32V32c0-17.6-14.4-32-32-32zM360.2 288.8c-30 19.6-65.8 31.2-104.2 31.2-38.4 0-74.2-11.6-104.2-31.2C102.6 293 64 333.8 64 384v272c0 26.6 21.4 48 48 48h16v272c0 26.6 21.4 48 48 48h160c26.6 0 48-21.4 48-48V704h16c26.6 0 48-21.4 48-48V384c0-50.2-38.6-91-87.8-95.2z" p-id="9284"></path></svg>