<?xml version="1.0" standalone="no"?><!DOCTYPE svg PUBLIC "-//W3C//DTD SVG 1.1//EN" "http://www.w3.org/Graphics/SVG/1.1/DTD/svg11.dtd"><svg t="1597909713713" class="icon" viewBox="0 0 1024 1024" version="1.1" xmlns="http://www.w3.org/2000/svg" p-id="4346" xmlns:xlink="http://www.w3.org/1999/xlink" width="32" height="32"><defs><style type="text/css"></style></defs><path d="M1024 199.63c0 16.568-11.908 30-34 30H34c-22.091 0-34-13.432-34-30 0-16.568 11.909-30 34-30h956c22.092 0 34 13.432 34 30z" fill="#999999" p-id="4347"></path><path d="M405.12 446.769c-16.568 0-30 11.909-30 34v364c0 22.093 13.432 34 30 34s30-11.907 30-34v-364c0-22.091-13.432-34-30-34zM622.424 446.769c-16.568 0-30 11.909-30 34v364c0 22.093 13.432 34 30 34s30-11.907 30-34v-364c0-22.091-13.432-34-30-34z" fill="#999999" p-id="4348"></path><path d="M817.838 363.394c11.715 0 21.245 9.531 21.245 21.246V940.9c0 11.714-9.53 21.245-21.245 21.245h-608.13c-11.715 0-21.246-9.531-21.246-21.245V384.64c0-11.715 9.531-21.246 21.246-21.246h608.13m-17.835-61.855H227.542c-55.229 0-100 44.771-100 100V924c0 55.229 44.771 100 100 100h572.461c55.229 0 100-44.771 100-100V401.539c0-55.229-44.773-100-100-100zM414.674 183A99.886 99.886 0 0 1 412 160c0-55.14 44.86-100 100-100 55.141 0 100 44.86 100 100 0 7.913-0.929 15.613-2.674 23h61.021a161.234 161.234 0 0 0 1.652-23C672 71.635 600.365 0 512 0S352 71.635 352 160c0 7.811 0.571 15.488 1.652 23h61.022z" fill="#999999" p-id="4349"></path></svg>