<?xml version="1.0" standalone="no"?><!DOCTYPE svg PUBLIC "-//W3C//DTD SVG 1.1//EN" "http://www.w3.org/Graphics/SVG/1.1/DTD/svg11.dtd"><svg t="1597909351911" class="icon" viewBox="0 0 1024 1024" version="1.1" xmlns="http://www.w3.org/2000/svg" p-id="3276" xmlns:xlink="http://www.w3.org/1999/xlink" width="32" height="32"><defs><style type="text/css"></style></defs><path d="M512 298.666667c-117.333333 0-213.333333 96-213.333333 213.333333s96 213.333333 213.333333 213.333333 213.333333-96 213.333333-213.333333-96-213.333333-213.333333-213.333333z m-153.6 232.533333c-10.666667-4.266667-14.933333-17.066667-8.533333-27.733333 4.266667-10.666667 17.066667-14.933333 27.733333-8.533334h2.133333c6.4-38.4 29.866667-74.666667 64-96 10.666667-6.4 23.466667-2.133333 29.866667 8.533334 6.4 10.666667 2.133333 23.466667-8.533333 29.866666-21.333333 12.8-36.266667 34.133333-42.666667 57.6 10.666667-4.266667 21.333333 0 27.733333 10.666667 4.266667 10.666667 0 23.466667-8.533333 27.733333l-40.533333 21.333334-42.666667-23.466667z m234.666667 119.466667h-4.266667c-10.666667 0-19.2-6.4-21.333333-17.066667v-4.266667c-17.066667 8.533333-36.266667 12.8-57.6 12.8-25.6 0-49.066667-6.4-70.4-21.333333-10.666667-6.4-12.8-19.2-6.4-29.866667 6.4-10.666667 19.2-12.8 29.866666-6.4 19.2 12.8 42.666667 17.066667 66.133334 12.8-6.4-4.266667-8.533333-12.8-6.4-19.2 2.133333-10.666667 12.8-19.2 25.6-17.066666l53.333333 10.666666 10.666667 53.333334c0 12.8-8.533333 23.466667-19.2 25.6z m6.4-132.266667c2.133333-23.466667-6.4-46.933333-21.333334-64-2.133333 8.533333-8.533333 14.933333-17.066666 14.933333h-4.266667c-10.666667 0-19.2-6.4-21.333333-17.066666l-10.666667-57.6 55.466667-21.333334c10.666667-4.266667 23.466667 0 27.733333 12.8 4.266667 10.666667 0 23.466667-10.666667 27.733334 29.866667 27.733333 46.933333 66.133333 44.8 108.8l-42.666666-4.266667z" fill="#8a8a8a" p-id="3277"></path><path d="M512 0C228.266667 0 0 228.266667 0 512s228.266667 512 512 512 512-228.266667 512-512S795.733333 0 512 0z m0 768c-140.8 0-256-115.2-256-256s115.2-256 256-256 256 115.2 256 256-115.2 256-256 256z" fill="#8a8a8a" p-id="3278"></path></svg>