<?xml version="1.0" standalone="no"?><!DOCTYPE svg PUBLIC "-//W3C//DTD SVG 1.1//EN" "http://www.w3.org/Graphics/SVG/1.1/DTD/svg11.dtd"><svg t="1596356465610" class="icon" viewBox="0 0 2141 1024" version="1.1" xmlns="http://www.w3.org/2000/svg" p-id="1930" xmlns:xlink="http://www.w3.org/1999/xlink" width="66.90625" height="32"><defs><style type="text/css"></style></defs><path d="M1675.496727 0c-113.058909 0-244.642909 70.283636-414.254545 221.556364a2518.528 2518.528 0 0 0-190.510546 189.44s-0.279273-0.465455-0.418909-0.465455l-96.674909 101.003636a3.770182 3.770182 0 0 1 0.418909 0.465455s-327.447273 372.363636-507.997091 372.363636-326.935273-166.632727-326.935272-372.363636 146.385455-372.363636 326.935272-372.363636c113.896727 0 286.161455 148.014545 397.917091 257.396363l99.002182-99.141818C830.882909 167.563636 629.248 0 466.059636 0 209.082182 0 0 229.469091 0 512s209.082182 512 466.059636 512c113.058909 0 244.642909-70.283636 414.254546-221.556364a2527.883636 2527.883636 0 0 0 190.510545-189.44c0 0.465455 0.418909 0.465455 0.651637 0.930909l96.674909-101.003636a2.094545 2.094545 0 0 0-0.698182-0.930909s327.493818-372.363636 508.043636-372.363636 326.888727 166.632727 326.888728 372.363636-146.338909 372.363636-326.888728 372.363636c-113.850182 0-286.021818-148.014545-397.730909-257.396363l-97.512727 101.003636C1312.395636 857.832727 1513.006545 1024 1675.496727 1024c256.977455 0 466.059636-229.469091 466.059637-512S1932.474182 0 1675.496727 0z" p-id="1931"></path></svg>