<?xml version="1.0" standalone="no"?><!DOCTYPE svg PUBLIC "-//W3C//DTD SVG 1.1//EN" "http://www.w3.org/Graphics/SVG/1.1/DTD/svg11.dtd"><svg t="1597847282923" class="icon" viewBox="0 0 1024 1024" version="1.1" xmlns="http://www.w3.org/2000/svg" p-id="3821" xmlns:xlink="http://www.w3.org/1999/xlink" width="32" height="32"><defs><style type="text/css"></style></defs><path d="M786.967 909.978c-24.8 0-45-20.1-45-45v-420c0-24.8 20.1 19.2 45 19.2s45-44.1 45-19.2v420c-0.1 24.8-20.2 45-45 45zM786.967 321.878c-24.8 0-45-20.1-45-45v-126c0-24.8 20.1-45 45-45s45 20.1 45 45v126c-0.1 24.9-20.2 45-45 45zM513.967 909.978c-24.8 0-45-20.1-45-45v-126c0-24.8 20.1 19.2 45 19.2 24.8 0 44.9-44.1 44.9-19.2v126c0 24.8-20.1 45-44.9 45zM513.967 615.978c-24.8 0-45-20.1-45-45v-420.1c0-24.8 20.1-45 45-45 24.8 0 44.9 20.1 44.9 45v420.1c0 24.8-20.1 45-44.9 45zM240.967 909.978c-24.8 0-45-20.1-45-45v-420c0-24.8 20.1 19.2 45 19.2s45-44.1 45-19.2v420c-0.1 24.8-20.2 45-45 45zM240.967 321.878c-24.8 0-45-20.1-45-45v-126c0-24.8 20.1-45 45-45s45 20.1 45 45v126c-0.1 24.9-20.2 45-45 45z" fill="#A4BEEC" p-id="3822"></path><path d="M786.167 491.478c-71.5 0-129.7-58.2-129.7-129.8 0-71.5 58.2-129.7 129.7-129.7s129.8 58.2 129.8 129.7c0 71.6-58.3 129.8-129.8 129.8z m0-169.6c-21.9 0-39.8 17.8-39.8 39.8s17.9 39.8 39.8 39.8c22 0 39.9-17.9 39.9-39.8s-17.9-39.8-39.9-39.8zM240.067 491.478c-71.5 0-129.7-58.2-129.7-129.8 0-71.5 58.2-129.7 129.7-129.7 71.5 0 129.8 58.2 129.8 129.7 0 71.6-58.2 129.8-129.8 129.8z m0-169.6c-22 0-39.8 17.8-39.8 39.8s17.8 39.8 39.8 39.8 39.8-17.9 39.8-39.8-17.8-39.8-39.8-39.8zM513.167 785.478c-71.5 0-129.8-58.2-129.8-129.7s58.2-129.7 129.8-129.7 129.7 58.1 129.7 129.7-58.2 129.7-129.7 129.7z m0-169.5c-22 0-39.8 17.9-39.8 39.8s17.9 39.8 39.8 39.8 39.8-17.9 39.8-39.8c0-22-17.9-39.8-39.8-39.8z" fill="#3F85FF" p-id="3823"></path></svg>